<?xml version="1.0" encoding="UTF-8" standalone="no"?>
<svg
   xmlns:dc="http://purl.org/dc/elements/1.1/"
   xmlns:cc="http://creativecommons.org/ns#"
   xmlns:rdf="http://www.w3.org/1999/02/22-rdf-syntax-ns#"
   xmlns:svg="http://www.w3.org/2000/svg"
   xmlns="http://www.w3.org/2000/svg"
   viewBox="0 0 252.10667 251.34132"
   height="251.34132"
   width="252.10667"
   xml:space="preserve"
   id="svg2"
   version="1.1"><metadata
     id="metadata8"><rdf:RDF><cc:Work
         rdf:about=""><dc:format>image/svg+xml</dc:format><dc:type
           rdf:resource="http://purl.org/dc/dcmitype/StillImage" /></cc:Work></rdf:RDF></metadata><defs
     id="defs6"><clipPath
       id="clipPath18"
       clipPathUnits="userSpaceOnUse"><path
         id="path16"
         d="M 9.487,9.204 H 179.594 V 179.3 H 9.487 Z" /></clipPath></defs><g
     transform="matrix(1.3333333,0,0,-1.3333333,0,251.34133)"
     id="g10"><g
       id="g12"><g
         clip-path="url(#clipPath18)"
         id="g14"><g
           transform="translate(179.5895,9.2041)"
           id="g20"><path
             id="path22"
             style="fill:#00adef;fill-opacity:1;fill-rule:nonzero;stroke:none"
             d="M 0,0 V 87.248 C -12.117,87.613 -51.566,81.153 -51.467,57.984 -51.409,44.735 -38.416,26.023 0,0" /></g><g
           transform="translate(146.008,118.7182)"
           id="g24"><path
             id="path26"
             style="fill:#00adef;fill-opacity:1;fill-rule:nonzero;stroke:none"
             d="m 0,0 c 6.664,0 11.464,2.087 16.046,6.987 l 0.469,0.501 -6.267,6.324 -0.506,-0.454 C 6.789,10.661 4.284,9.106 0.271,9.106 c -5.854,0 -10.274,4.811 -10.274,11.187 0,6.429 4.42,11.193 10.274,11.193 3.246,0 6.085,-1.262 9.205,-4.091 l 0.538,-0.485 6.214,7.165 -0.469,0.469 c -4.248,4.18 -9.012,6.043 -15.43,6.043 -11.668,0 -20.466,-8.725 -20.466,-20.294 V 20.184 C -20.137,8.678 -11.48,0 0,0 m -48.659,16.802 h 9.429 c 3.913,0 5.98,-1.356 5.98,-3.918 0,-3.35 -3.1,-4.029 -5.709,-4.029 h -9.7 z m 0,14.93 c 0.365,0 8.03,0.005 8.03,0.005 3.397,0 5.271,-1.32 5.271,-3.705 0,-2.64 -1.957,-3.919 -5.813,-3.919 h -7.488 z m 24.593,-19.986 c 0,4.592 -2.077,7.514 -6.439,9.518 2.854,1.957 4.325,4.582 4.325,8.062 0,2.896 -0.913,5.166 -2.807,7.05 -2.322,2.332 -5.923,3.564 -10.4,3.564 H -57.682 V 0.647 h 18.723 c 9.466,0 14.893,4.044 14.893,11.099 M -80.234,0 c 6.668,0 11.469,2.087 16.051,6.987 l 0.469,0.501 -6.267,6.324 -0.506,-0.454 c -2.959,-2.697 -5.458,-4.252 -9.476,-4.252 -5.855,0 -10.269,4.811 -10.269,11.187 0,6.429 4.414,11.193 10.269,11.193 3.251,0 6.089,-1.262 9.205,-4.091 l 0.537,-0.485 6.225,7.165 -0.48,0.469 c -4.242,4.18 -9.006,6.043 -15.43,6.043 -11.668,0 -20.46,-8.725 -20.46,-20.294 V 20.184 C -100.366,8.678 -91.714,0 -80.234,0 m -25.496,39.94 h -9.753 V 0.647 h 9.753 z M 33.584,37.404 v -45.93 c -74.134,-3.418 -112.451,-19.819 -131.633,-38.505 -26.613,-25.935 -16.38,-56.289 -13.886,-62.483 h -1.409 c -12.748,0 -23.179,10.432 -23.179,23.179 V 37.404 c 0,12.748 10.431,23.184 23.179,23.184 H 10.395 c 12.753,0 23.189,-10.436 23.189,-23.184" /></g></g></g></g></svg>